<svg xmlns="http://www.w3.org/2000/svg" xmlns:xlink="http://www.w3.org/1999/xlink" version="1.1" x="0px" y="0px" viewBox="0 0 100 125" enable-background="new 0 0 100 100" xml:space="preserve"><g><path fill="#000000" d="M18.119,14.491c-1.984,0-3.605,1.622-3.605,3.607v63.804c0,1.984,1.621,3.606,3.605,3.606h41.531   c1.983,0,3.604-1.622,3.604-3.606V67.391l22.023-22.2c0.279-0.28,0.279-0.811,0-1.119l-9.279-9.338   c-0.14-0.167-0.391-0.251-0.614-0.251c-0.195,0.028-0.392,0.112-0.503,0.251L63.254,46.449V18.098c0-1.985-1.621-3.607-3.604-3.607   H18.119L18.119,14.491z M18.119,16.057h41.531c1.146,0,2.04,0.895,2.04,2.041v29.917l-16.406,16.58   c-0.167,0.14-0.251,0.363-0.251,0.56v9.366c0,0.392,0.363,0.783,0.783,0.783h9.279c0.195,0,0.419-0.084,0.559-0.252l6.037-6.095   v12.945c0,1.146-0.895,2.041-2.04,2.041H18.119c-1.146,0-2.041-0.896-2.041-2.041V18.098   C16.078,16.952,16.973,16.057,18.119,16.057L18.119,16.057z M21.417,25.675c-0.419,0.056-0.755,0.475-0.699,0.895   c0.028,0.392,0.447,0.727,0.866,0.699H44.25c0.419,0,0.783-0.363,0.783-0.783s-0.363-0.811-0.783-0.811H21.584   C21.528,25.675,21.472,25.675,21.417,25.675L21.417,25.675z M21.444,34.818c-0.419,0.028-0.755,0.447-0.727,0.867   c0.056,0.392,0.447,0.755,0.866,0.699h34.6c0.419,0,0.811-0.364,0.811-0.783s-0.392-0.783-0.811-0.783h-34.6   c-0.028,0-0.056,0-0.084,0C21.5,34.818,21.472,34.818,21.444,34.818L21.444,34.818z M75.439,36.412l8.161,8.248L54.758,73.71   h-8.161v-8.221L75.439,36.412L75.439,36.412z M21.444,43.96c-0.419,0.028-0.755,0.448-0.727,0.867   c0.056,0.419,0.447,0.755,0.866,0.699h34.6c0.419,0.028,0.811-0.363,0.811-0.783s-0.392-0.783-0.811-0.783h-34.6   c-0.028,0-0.056,0-0.084,0C21.5,43.96,21.472,43.96,21.444,43.96L21.444,43.96z M21.444,53.104   c-0.419,0.056-0.755,0.447-0.727,0.866c0.056,0.42,0.447,0.756,0.866,0.728h27.78c0.419,0,0.811-0.392,0.811-0.811   c0-0.42-0.392-0.783-0.811-0.783h-27.78c-0.028,0-0.056,0-0.084,0C21.5,53.104,21.472,53.104,21.444,53.104L21.444,53.104z    M33.126,60.82c-0.587,0-0.95,0.392-1.146,0.755c-0.195,0.336-0.307,0.727-0.447,1.146c-0.223,0.866-0.447,1.929-0.67,2.964   c-0.251,1.034-0.503,2.068-0.811,2.768c-0.168,0.336-0.335,0.587-0.475,0.699c-0.084,0.084-0.112,0.084-0.168,0.111   c-0.083-0.083-0.195-0.251-0.307-0.447c-0.251-0.475-0.531-1.118-0.811-1.789s-0.559-1.342-0.895-1.873   c-0.167-0.28-0.335-0.531-0.615-0.728c-0.279-0.195-0.866-0.308-1.258-0.111c-0.643,0.363-0.782,0.923-1.09,1.789   c-0.335,0.867-0.671,2.098-1.034,3.831c-0.028,0.027-0.028,0.056-0.028,0.084c-0.112,0.838-0.279,1.51-0.671,1.929   c-0.391,0.419-1.034,0.755-2.375,0.783c0,0,0,0-0.028,0h-0.866c-0.419,0-0.783,0.363-0.783,0.782c0,0.42,0.363,0.812,0.783,0.812   h0.894h0.028c1.621-0.028,2.767-0.504,3.493-1.314c0.727-0.783,0.95-1.762,1.062-2.712c0-0.028,0.028-0.056,0.028-0.084   c0.364-1.649,0.699-2.824,0.951-3.579c0.167-0.392,0.14-0.335,0.223-0.476c0.224,0.364,0.475,0.867,0.727,1.482   c0.279,0.643,0.559,1.342,0.894,1.929c0.14,0.308,0.308,0.56,0.503,0.783c0.224,0.252,0.503,0.503,0.979,0.531   c0.028,0,0.028,0,0.056,0c0.559,0,1.034-0.224,1.397-0.56c0.335-0.335,0.587-0.755,0.811-1.202   c0.419-0.922,0.699-2.013,0.922-3.104c0.251-1.063,0.447-2.125,0.643-2.852c0.056-0.168,0.112-0.252,0.168-0.363   c0.028,0.111,0.056,0.168,0.112,0.335c0.195,0.728,0.363,1.79,0.643,2.908s0.671,2.265,1.453,3.215   c0.783,0.951,1.984,1.622,3.55,1.622h3.856c0.419,0,0.811-0.363,0.811-0.783c0-0.419-0.391-0.811-0.811-0.782h-3.856   c-1.174,0-1.817-0.392-2.348-1.035c-0.531-0.671-0.867-1.621-1.118-2.628c-0.279-1.007-0.419-2.069-0.643-2.936   c-0.14-0.42-0.251-0.811-0.475-1.175C34.133,61.184,33.657,60.82,33.126,60.82L33.126,60.82z"/></g><text x="0" y="115" fill="#000000" font-size="5px" font-weight="bold" font-family="'Helvetica Neue', Helvetica, Arial-Unicode, Arial, Sans-serif">Created by artworkbean</text><text x="0" y="120" fill="#000000" font-size="5px" font-weight="bold" font-family="'Helvetica Neue', Helvetica, Arial-Unicode, Arial, Sans-serif">from the Noun Project</text></svg>