<svg height="512pt" viewBox="0 -56 512 512" width="512pt" xmlns="http://www.w3.org/2000/svg" fill="#CFAD68"><path d="m256 240c-5.519531 0-10 4.480469-10 10s4.480469 10 10 10 10-4.480469 10-10-4.480469-10-10-10zm0 0"/><path d="m511.863281 248.355469-37.210937-223.292969c-2.425782-14.523438-14.871094-25.0625-29.59375-25.0625h-378.117188c-14.722656 0-27.167968 10.539062-29.597656 25.066406l-37.207031 223.289063c-.019531.101562-.136719 1.007812-.136719 1.644531v40c0 5.523438 4.476562 10 10 10h216v40h-50c-16.542969 0-30 13.457031-30 30v10h-90c-5.523438 0-10 4.476562-10 10s4.476562 10 10 10h400c5.523438 0 10-4.476562 10-10s-4.476562-10-10-10h-90v-10c0-16.542969-13.457031-30-30-30h-50v-40h216c5.523438 0 10-4.476562 10-10v-40c0-.429688-.09375-1.402344-.136719-1.644531zm-168.082031-8.355469-4.230469-60h140.644531l10 60zm-321.976562 0 10-60h140.644531l-4.230469 60zm13.332031-80 10-60h132.953125l-4.230469 60zm163.003906-60h115.71875l4.230469 60h-124.179688zm110.078125-80 4.230469 60h-112.898438l4.230469-60zm25.691406 80h132.953125l10 60h-138.722656zm121.015625-71.644531 8.605469 51.644531h-131.03125l-4.230469-60h116.789063c4.910156 0 9.058594 3.515625 9.867187 8.355469zm-387.984375-8.355469h116.789063l-4.230469 60h-131.03125l8.605469-51.644531c.808593-4.839844 4.957031-8.355469 9.867187-8.355469zm279.058594 350v10h-180v-10c0-5.515625 4.484375-10 10-10h160c5.515625 0 10 4.484375 10 10zm-80-30h-20v-40h20zm226-60h-472v-20h196c5.523438 0 10-4.476562 10-10s-4.476562-10-10-10h-27.730469l4.230469-60h127l4.230469 60h-27.730469c-5.523438 0-10 4.476562-10 10s4.476562 10 10 10h196zm0 0"/></svg>